<svg id="圖層_2_拷貝_2" data-name="圖層 2 拷貝 2" xmlns="http://www.w3.org/2000/svg" viewBox="0 0 363.68 286.48"><defs><style>.cls-1{fill:#91e5d3;}.cls-2{fill:#509294;}.cls-3{fill:#2f5557;}</style></defs><title>fly</title><path class="cls-1" d="M378.76,1458.65a1.62,1.62,0,0,1-.92-.27c-1.4-.9-2.85-1.8-4.3-2.67a1.72,1.72,0,0,1-.58-2.34,1.7,1.7,0,0,1,2.34-.58c1.48.89,3,1.8,4.38,2.72a1.7,1.7,0,0,1,.51,2.36A1.68,1.68,0,0,1,378.76,1458.65Z" transform="translate(-64.61 -1420.08)"/><path class="cls-1" d="M152.07,1706.56a1.7,1.7,0,0,1-.81-.2c-3.66-2-6.65-3.62-8.88-4.89a1.7,1.7,0,1,1,1.68-3c2.21,1.25,5.18,2.88,8.82,4.84a1.71,1.71,0,0,1-.81,3.21Zm-21-12.94a1.77,1.77,0,0,1-1-.33c-2.73-2-5.43-4.14-8-6.25a1.71,1.71,0,0,1,2.17-2.64c2.52,2.08,5.17,4.15,7.87,6.15a1.7,1.7,0,0,1-1,3.07Zm-18.81-15.85a1.68,1.68,0,0,1-1.18-.48c-2.45-2.35-4.85-4.79-7.13-7.25a1.7,1.7,0,0,1,2.5-2.31c2.24,2.4,4.59,4.8,7,7.1a1.71,1.71,0,0,1-1.18,2.94ZM95.83,1659.5a1.68,1.68,0,0,1-1.35-.66c-2.08-2.7-4.09-5.47-6-8.25a1.71,1.71,0,1,1,2.83-1.91c1.83,2.72,3.79,5.44,5.83,8.07a1.72,1.72,0,0,1-.31,2.4A1.69,1.69,0,0,1,95.83,1659.5Zm-13.4-20.62a1.68,1.68,0,0,1-1.5-.9c-1.6-3-3.11-6.07-4.49-9.15a1.71,1.71,0,0,1,3.12-1.39c1.34,3,2.81,6,4.37,8.93a1.7,1.7,0,0,1-1.5,2.51Zm-9.62-22.63a1.72,1.72,0,0,1-1.63-1.18c-1-3.22-2-6.52-2.76-9.82a1.71,1.71,0,1,1,3.32-.8c.77,3.21,1.68,6.43,2.69,9.58a1.7,1.7,0,0,1-1.1,2.14A1.57,1.57,0,0,1,72.81,1616.25Zm-5.39-24a1.7,1.7,0,0,1-1.69-1.48c-.1-.77-.19-1.54-.28-2.32-.3-2.59-.53-5.22-.69-7.83a1.71,1.71,0,0,1,3.41-.2c.15,2.54.37,5.11.66,7.64.09.76.18,1.51.28,2.27a1.7,1.7,0,0,1-1.47,1.91Zm-1.1-24.57h-.07a1.71,1.71,0,0,1-1.64-1.77c.13-3.36.39-6.78.75-10.16a1.71,1.71,0,0,1,3.39.37c-.35,3.3-.6,6.64-.73,9.92A1.71,1.71,0,0,1,66.32,1567.69Zm3-24.4a1.32,1.32,0,0,1-.34,0,1.7,1.7,0,0,1-1.33-2c.68-3.29,1.49-6.62,2.39-9.9a1.71,1.71,0,0,1,3.29.91c-.89,3.2-1.67,6.46-2.34,9.68A1.71,1.71,0,0,1,69.32,1543.29Zm6.9-23.61a1.87,1.87,0,0,1-.61-.11,1.71,1.71,0,0,1-1-2.2c1.2-3.16,2.52-6.32,3.92-9.4a1.71,1.71,0,0,1,3.11,1.41c-1.37,3-2.67,6.11-3.84,9.2A1.7,1.7,0,0,1,76.22,1519.68Zm10.5-22.25a1.67,1.67,0,0,1-.84-.22,1.71,1.71,0,0,1-.64-2.33c1.67-2.93,3.46-5.85,5.32-8.68a1.71,1.71,0,0,1,2.85,1.88c-1.82,2.77-3.57,5.63-5.21,8.49A1.7,1.7,0,0,1,86.72,1497.43Zm13.8-20.36a1.7,1.7,0,0,1-1.33-2.77c2.1-2.65,4.32-5.26,6.58-7.76a1.71,1.71,0,1,1,2.53,2.29c-2.21,2.45-4.38,5-6.44,7.59A1.7,1.7,0,0,1,100.52,1477.07Zm16.77-18a1.71,1.71,0,0,1-1.14-3c2.51-2.28,5.15-4.48,7.84-6.53a1.7,1.7,0,1,1,2.07,2.7c-2.61,2-5.18,4.14-7.62,6.36A1.74,1.74,0,0,1,117.29,1459.07ZM361.67,1449a1.7,1.7,0,0,1-.76-.18c-2.94-1.46-6-2.88-9.05-4.21a1.71,1.71,0,1,1,1.36-3.13c3.12,1.36,6.22,2.8,9.21,4.28a1.71,1.71,0,0,1-.76,3.24Zm-224.58-4.44a1.71,1.71,0,0,1-.86-3.18c2.89-1.7,5.91-3.32,9-4.81a1.7,1.7,0,1,1,1.49,3.06c-3,1.46-5.94,3-8.76,4.69A1.67,1.67,0,0,1,137.09,1444.52ZM339,1439.38a1.63,1.63,0,0,1-.57-.1c-3.1-1.1-6.3-2.15-9.5-3.13a1.7,1.7,0,0,1,1-3.26c3.25,1,6.49,2.06,9.64,3.18a1.7,1.7,0,0,1-.57,3.31Zm-179.63-5.24a1.7,1.7,0,0,1-.57-3.31c3.13-1.12,6.39-2.17,9.69-3.11a1.71,1.71,0,1,1,.94,3.28c-3.23.92-6.42,2-9.48,3A1.69,1.69,0,0,1,159.37,1434.14Zm156-1.75a1.83,1.83,0,0,1-.4-.05c-3.18-.77-6.47-1.5-9.77-2.18a1.7,1.7,0,0,1,.68-3.34c3.34.68,6.67,1.43,9.89,2.21a1.7,1.7,0,0,1-.4,3.36Zm-132.29-4.7a1.71,1.71,0,0,1-.32-3.38c3.24-.63,6.61-1.2,10-1.68a1.7,1.7,0,0,1,.48,3.37c-3.35.48-6.66,1-9.85,1.66Zm108.14,0a1.09,1.09,0,0,1-.26,0c-3.27-.49-6.61-.95-9.93-1.36a1.7,1.7,0,1,1,.41-3.38c3.36.41,6.74.87,10,1.38a1.7,1.7,0,0,1-.25,3.39Zm-24.46-2.83h-.14c-3.28-.26-6.65-.49-10-.67a1.71,1.71,0,0,1,.18-3.41c3.39.19,6.79.41,10.1.68a1.71,1.71,0,0,1-.13,3.41Zm-59.28-.39a1.71,1.71,0,0,1-.14-3.41c3.27-.26,6.67-.47,10.12-.62a1.71,1.71,0,0,1,.15,3.41c-3.41.15-6.77.35-10,.61Zm34.68-.83h0c-3.26-.07-6.46-.11-9.49-.11h-.54a1.71,1.71,0,1,1,0-3.41h.54c3.06,0,6.28,0,9.57.11a1.71,1.71,0,0,1,0,3.41Z" transform="translate(-64.61 -1420.08)"/><polygon class="cls-2" points="363.68 53.37 313.44 22.93 301.14 35.48 363.68 53.37"/><polygon class="cls-1" points="313.43 60.42 314.15 36.87 363.68 53.37 313.43 60.42"/><polygon class="cls-1" points="313.38 3.44 363.68 53.37 313.44 22.93 313.38 3.44"/><polygon class="cls-3" points="301.14 35.48 314.15 36.87 314.05 40.29 301.14 35.48"/></svg>