<?xml version="1.0" encoding="utf-8"?>
<!-- Generator: Adobe Illustrator 24.1.2, SVG Export Plug-In . SVG Version: 6.00 Build 0)  -->
<svg version="1.1" id="Layer_1" focusable="false" xmlns="http://www.w3.org/2000/svg" xmlns:xlink="http://www.w3.org/1999/xlink"
	 x="0px" y="0px" viewBox="0 0 3063 512" style="enable-background:new 0 0 3063 512;" xml:space="preserve">
<path d="M407.1,211.2c-3.5-1.4-11.6-3.8-15.4-3.8c-37.1,0-62.2,16.8-93.5,34.5l-0.9-0.9c7-47.3,23.5-91.9,23.5-140.4
	C320.8,29.1,282.6,0,212.4,0C97.3,0,39,113.7,39,198.4C39,286.3,90.3,335,177.6,335c12,0,11-1,11,3.8
	c-16.9,128.9-90.8,133.1-90.8,94.6c0-39.2,45-58.6,45.5-61c-0.3-12.2-47-27.6-58.9-27.6C50.5,344.9,32,396,32,424.1
	C32,476,64.8,512,117.5,512c77.4,0,134-77.8,151.4-145.4c15.1-60.5,11.2-63.3,19.7-67.6c32.2-16.2,57.5-27,93.8-27
	c17.8,0,30.5,3.7,58.9,8.4c2.9,0,6.7-2.9,6.7-5.8C448,266.6,414.6,214.1,407.1,211.2L407.1,211.2z M231.8,126.8
	c-9.3,44.7-18.6,89.6-27.8,134.3c-2.3,10.2-13.3,7.8-22,7.8c-38.3,0-49-41.8-49-73.1c0-47,18-109.3,61.8-133.4
	c7-4.1,14.8-6.7,22.6-6.7c18.6,0,20,13.3,20,28.7C237.3,98.7,234.7,112.9,231.8,126.8z"/>
<g>
	<path d="M801.3,57.2c82.8,0,134.9,40.2,165.5,87.6l-70.8,38.4c-18.6-28.2-52.8-50.4-94.8-50.4c-72.6,0-125.3,55.8-125.3,131.3
		c0,75.6,52.8,131.3,125.3,131.3c36.6,0,69-15,86.4-30.6v-48.6H780.9v-73.2h190.7V396c-40.8,45.6-97.8,75.6-170.3,75.6
		c-116.9,0-212.9-81.6-212.9-207.5C588.4,137.6,684.4,57.2,801.3,57.2z"/>
	<path d="M1019,318.7c0-82.2,57.6-151.7,152.9-151.7c96,0,153.5,69.6,153.5,151.7c0,82.8-57.6,152.3-153.5,152.3
		C1076.6,471,1019,401.4,1019,318.7z M1246.3,318.7c0-45-27-84-74.4-84s-73.8,39-73.8,84c0,45.6,26.4,84.6,73.8,84.6
		S1246.3,364.3,1246.3,318.7z"/>
	<path d="M1363.3,318.7c0-82.2,57.6-151.7,152.9-151.7c96,0,153.5,69.6,153.5,151.7c0,82.8-57.6,152.3-153.5,152.3
		C1420.8,471,1363.3,401.4,1363.3,318.7z M1590.5,318.7c0-45-27-84-74.4-84s-73.8,39-73.8,84c0,45.6,26.4,84.6,73.8,84.6
		S1590.5,364.3,1590.5,318.7z"/>
	<path d="M1925.2,426.6c-22.8,28.8-54.6,44.4-89.4,44.4c-73.2,0-128.3-55.2-128.3-151.7c0-94.8,54.6-152.3,128.3-152.3
		c34.2,0,66.6,15,89.4,44.4V63.8h76.8v400h-76.8V426.6z M1925.2,267.7c-12.6-19.2-40.2-33-66-33c-43.2,0-73.2,34.2-73.2,84.6
		c0,49.8,30,84,73.2,84c25.8,0,53.4-13.8,66-33V267.7z"/>
	<path d="M2077.5,63.8h76.2v147.5c22.8-29.4,55.2-44.4,89.4-44.4c73.8,0,128.3,57.6,128.3,152.3c0,96.6-55.2,151.7-128.3,151.7
		c-34.8,0-66.6-15.6-89.4-44.4v37.2h-76.2V63.8z M2219.1,403.2c44.4,0,73.8-33.6,73.8-84c0-50.4-29.4-84.6-73.8-84.6
		c-24.6,0-52.8,14.4-65.4,33.6v102.6C2166.3,389.4,2194.5,403.2,2219.1,403.2z"/>
	<path d="M2421.2,86c0-25.2,21-45.6,45.6-45.6c25.2,0,45.6,20.4,45.6,45.6c0,25.2-20.4,45.6-45.6,45.6
		C2442.2,131.6,2421.2,111.2,2421.2,86z M2429,174.1h76.2v289.7H2429V174.1z"/>
	<path d="M2595.7,391.8V240.7h-48v-66.6h48V95h76.8v79.2h58.8v66.6h-58.8v130.7c0,18,9.6,31.8,26.4,31.8c11.4,0,22.2-4.2,26.4-8.4
		l16.2,57.6c-11.4,10.2-31.8,18.6-63.6,18.6C2624.5,471,2595.7,443.4,2595.7,391.8z"/>
	<path d="M2914.7,166.9c86.4,0,145.1,64.8,145.1,159.5v16.8h-215.3c4.8,36.6,34.2,67.2,83.4,67.2c27,0,58.8-10.8,77.4-28.8
		l33.6,49.2c-28.8,26.4-74.4,40.2-119.3,40.2c-88.2,0-154.7-59.4-154.7-152.3C2764.8,234.7,2826.6,166.9,2914.7,166.9z
		 M2843.4,291.7h142.7c-1.8-27.6-21-64.2-71.4-64.2C2867.4,227.5,2847,262.9,2843.4,291.7z"/>
</g>
</svg>
