<svg id="_ÎÓÈ_1" data-name="—ÎÓÈ_1" xmlns="http://www.w3.org/2000/svg" viewBox="0 0 3600 2000"><defs><style>.cls-1,.cls-10{fill:#fff;}.cls-1{stroke:#000;stroke-miterlimit:10;}.cls-2{fill:#a4e6e1;}.cls-3{fill:#dcefeb;}.cls-4{fill:#62c1c5;}.cls-5{fill:#1f8b8d;}.cls-6{fill:#1a264c;}.cls-7{fill:#fdd246;}.cls-8{fill:#ea6868;}.cls-9{fill:#fb9391;}.cls-11{fill:#213361;}.cls-12{fill:#13676b;}.cls-13{fill:#f78181;}.cls-14{fill:#dde7fe;}</style></defs><rect class="cls-1" x="-0.49" y="0.04" width="3600" height="2000"/><path class="cls-2" d="M3201.15,2000c-71.9-17.26-125.82-103.13-118.1-201.73,7.21-92.15,85.15-170.5,44.21-289.32-39-113.31-387.43-149.78-476.85-226.06-44.37-37.84-81.49-120-82.32-178.34-1.19-83,57.73-202.58-35.48-290.39-91.33-86-344-50.1-390.89-38.12-69.69,17.79-162.29-9.22-200.54-70.15-58-92.44-95.84-195.3-132-298.3-4.85-13.83-43.93-91.87-142.79-108.84-29.27-5-71.48-4.47-100.85,0-28.89,4.4-126,33.69-153.77,42.94-227.66,75.88-356.47,25-424.37-42.94C903.09,214.39,893.59,54.35,910.17,0H3600V1999.4Z"/><path class="cls-3" d="M3089.08,1683.42c65-36,97.45-112.87,135-187.22,43.33-85.84,76.64-180.44,69.21-276.3-11.17-144.2-111.39-267.06-139.35-409-25.48-129.38-17.24-270.33-81-389.63-60.06-112.38-175-176.55-297.22-200.06-108.34-20.83-219.82-13.45-330-8.51-141.21,6.32-283.24,8.55-422.33,33.7-107.53,19.45-217.67,64.44-240.62,183-8.39,43.35-7.37,88-13.74,131.67-17.37,119.08-86.59,220.79-127.39,332-76.22,207.69-46.87,441.5,62.58,631.87,43.3,75.31,105.64,142.4,185.53,176.53,58.1,24.82,122.24,31.11,185.31,34.88,310.65,18.56,626.79-18.51,937.3-32.3C3042.41,1702.75,3067.54,1695.33,3089.08,1683.42Z"/><ellipse class="cls-4" cx="2466.2" cy="1715.51" rx="754.87" ry="77.16"/><path class="cls-4" d="M3124.3,737.31c31.56,6.53,60,29.32,63.23,78.9,3.07,46.93-22.57,93.39-9.89,139.89,13,47.72,50.17,64,36.61,123.07-4.83,21-12.62,41.51-12.22,63.58.82,46.25,33.13,74.49,48.92,110.77,20.37,46.82,12.83,111.33-14.3,149.8-51.57,73.16-139.05,46.88-204.11,40-37.8-4-71.9-31.07-81.36-85.93-11-63.68,17.76-94.37,35.72-144.73,17.48-49-4-106.74-4.56-161.49-.58-61.21,34.8-94.81,41.29-151,4.7-40.67-11.69-82.57,4.62-121a67.78,67.78,0,0,1,41.1-38.37A109,109,0,0,1,3124.3,737.31Z"/><rect class="cls-5" x="3101.88" y="1030.38" width="7.53" height="577.63"/><rect class="cls-5" x="3070.19" y="1143.77" width="7.53" height="152.5" transform="translate(-228.99 1388.03) rotate(-24.56)"/><rect class="cls-5" x="3082.22" y="1340.94" width="109.28" height="7.53" transform="translate(241.32 3151.36) rotate(-55.17)"/><path class="cls-5" d="M3028.19,1586.73h151.47a0,0,0,0,1,0,0v108.64a11,11,0,0,1-11,11h-129.5a11,11,0,0,1-11-11V1586.73A0,0,0,0,1,3028.19,1586.73Z"/><path class="cls-6" d="M2431.84,1710.22a10.66,10.66,0,0,1-2.49-.3,10.46,10.46,0,0,1-7.68-12.65L2461.86,1533a10.47,10.47,0,0,1,20.33,5L2442,1702.25A10.47,10.47,0,0,1,2431.84,1710.22Z"/><path class="cls-6" d="M2205.72,1710.22a10.66,10.66,0,0,1-2.49-.3,10.47,10.47,0,0,1-7.68-12.65L2253.86,1459a10.46,10.46,0,0,1,20.33,5l-58.31,238.28A10.47,10.47,0,0,1,2205.72,1710.22Z"/><path class="cls-7" d="M2296,850.38c401.63,0,324.45,413.05,451,406s185.29,291.24-275,291.24S1926.36,850.38,2296,850.38Z"/><path class="cls-6" d="M2399,802c3,0,63.63-17.59,57-92.93s-72.88-82.87-106.78-78.35-92.67,53.88-69.31,111.69,52.73,79.66,52.73,79.66Z"/><path class="cls-8" d="M2440.89,764.34s7.68-7.91,11.72-3.34c10.29,11.63-5.09,21.62-13.62,22.79Z"/><path class="cls-9" d="M2385.58,640.46c-37.35-4.52-72.76,20.08-81.65,56.63a74.68,74.68,0,0,0-.09,35.14c5.34,27.55,9.85,49.79,17.47,66.79a74.58,74.58,0,0,1,3,54.52l-6.13,18.05c38.82,29.47,60.92,15.12,60.92,15.12l8.71-46.4h0c47.38,3.18,57.26-83.5,62-108.78h-.08c.21-.94.43-1.88.61-2.84A74.94,74.94,0,0,0,2385.58,640.46Z"/><path class="cls-6" d="M2366.23,714.41c-10.74,7.48-20.51,16.25-30.25,25-10.3,9.26-21,19.12-25.4,32.27-10.25-11.33-15.35-26.31-19.25-41.08-1.81-6.84-3.43-13.85-3.12-20.92.43-10,4.68-19.42,8.86-28.54,5.39-11.76,11.14-24,21.33-32,6.75-5.28,15-8.29,23.31-10.4,19.38-4.92,40.2-5.26,59.16,1.11s35.83,19.81,44.47,37.85c11.12,23.23,7.73,50.47,4.09,76-.58-11-5.86-21.08-11-30.77-3.36-6.31-6.82-12.74-12.07-17.59-8.95-8.27-12-7.42-27.57-22.81C2391.2,697.25,2379.66,705,2366.23,714.41Z"/><path class="cls-6" d="M2431.58,762.75a6.54,6.54,0,1,0-8.11,4.46A6.55,6.55,0,0,0,2431.58,762.75Z"/><path class="cls-6" d="M2366.63,758.16a6.54,6.54,0,1,0-8.1,4.46A6.53,6.53,0,0,0,2366.63,758.16Z"/><path class="cls-8" d="M2411.38,801.91s-7.94-6.61-11.37-6.13-5.78,4.25-5.78,4.25-1.45-4.26-5.47-4.85-18.48,5.24-18.48,5.24,10.42,18.83,22.92,18.21c12.73-.63,18.18-16.72,18.18-16.72Z"/><path class="cls-6" d="M2348.59,747.84a2.73,2.73,0,0,1-.83-5.05,32.65,32.65,0,0,1,21.67-2.54,2.72,2.72,0,0,1,2,3.27,2.79,2.79,0,0,1-3.26,2,27.18,27.18,0,0,0-17.78,2A2.76,2.76,0,0,1,2348.59,747.84Z"/><path class="cls-6" d="M2415.47,750a2.67,2.67,0,0,1-1.42-1.82,2.72,2.72,0,0,1,2-3.26,32.35,32.35,0,0,1,21.52,3.6,2.72,2.72,0,0,1-2.66,4.75,27.07,27.07,0,0,0-17.64-3.05A2.67,2.67,0,0,1,2415.47,750Z"/><path class="cls-8" d="M2391,788.08c7.81.27,11.41-5,12.26-8.21a2.31,2.31,0,0,0-.2-1.69c-5.26-9.59-2.27-21.63-2.24-21.75a2.29,2.29,0,0,0-4.43-1.15c-.14.55-3.31,13.16,2.16,24.17-.77,1.69-3.35,5.31-10.5,3.6a2.29,2.29,0,0,0-1.07,4.46A21.44,21.44,0,0,0,2391,788.08Z"/><path class="cls-10" d="M2370.28,800.42s24.88,2.23,41.1,1.49c0,0-9,11.59-18.42,10.41S2370.28,800.42,2370.28,800.42Z"/><path class="cls-6" d="M2360,779.44a22.71,22.71,0,1,1,22.71-22.71A22.73,22.73,0,0,1,2360,779.44Zm0-43.33a20.62,20.62,0,1,0,20.61,20.62A20.64,20.64,0,0,0,2360,736.11Z"/><path class="cls-6" d="M2425.3,782.28a22.71,22.71,0,1,1,22.7-22.7A22.72,22.72,0,0,1,2425.3,782.28Zm0-43.32a20.62,20.62,0,1,0,20.61,20.62A20.64,20.64,0,0,0,2425.3,739Z"/><rect class="cls-6" x="2323.81" y="739.31" width="2.09" height="27.1" transform="translate(1314.21 2977.8) rotate(-83.51)"/><path class="cls-6" d="M2402.94,761c-.34-.31-8.45-7.52-21-.5l-1-1.83c13.86-7.79,23.32.7,23.41.79Z"/><path class="cls-9" d="M2322.42,757.09a11.09,11.09,0,0,0-4.75-6.27c-4.7-3-13.25-6.93-20.57-1.92-10.74,7.34,3,34.74,23.17,26.2C2320.27,775.1,2326.37,770.92,2322.42,757.09Z"/><path class="cls-9" d="M2798.8,1581s-4.05,99.54,6.47,106.83,123.83,0,123.83,0l-29.95-37.23s-61.51,8.9-60.69-74.46Z"/><path class="cls-11" d="M2850.7,1696.72s7.18-56.65,21.75-58.27,65.55,15.38,67.17,58.27H2850.7Z"/><rect class="cls-11" x="2798.03" y="1691.05" width="141.03" height="8.7"/><path class="cls-9" d="M2591.87,1581s-4,99.54,6.48,106.83,123.82,0,123.82,0l-29.94-37.23s-61.51,8.9-60.7-74.46Z"/><path class="cls-11" d="M2643.77,1696.72s7.18-56.65,21.75-58.27,65.55,15.38,67.17,58.27h-88.92Z"/><rect class="cls-11" x="2591.11" y="1691.05" width="141.03" height="8.7"/><path class="cls-12" d="M2759.08,1233s79.86,6.46,105.47,108.2c14.89,59.12,9,251.63,9,251.63L2770.05,1609s9.29-215.13-70.9-281.43c0,0,16.23,43.7-42.53,292.31h-76.84l-25.62-254.64s-180.8,6-235-39.18-59.68-99.29-59.68-99.29L2515,1187.94Z"/><path class="cls-10" d="M2300,887.12s5-38.67,13.06-36.66,79.35,15,86.38,13.52,0,32.69,0,32.69,58.26,5,78.35,39.17,46.21,161.72,63.28,172.77,93.42,46.21,93.42,46.21L2495.63,1233l-131.57-6.16s-95.17,57-169.5,12.62-61.28-277.45,9-318.64S2300,887.12,2300,887.12Z"/><path class="cls-6" d="M2364.06,1227.83a1,1,0,0,1-1-.62,1,1,0,0,1,.54-1.38l29-12.65-4.05-50.45c-8.84-1.73-90.2-17.58-129.06-22.12a1.05,1.05,0,0,1-.93-1c-.06-3.9-1.44-95.63,4.61-109.25a1,1,0,0,1,1.38-.53,1.05,1.05,0,0,1,.54,1.38c-5.56,12.5-4.58,97.63-4.45,107.45,41.38,4.93,128.22,22,129.09,22.19a1,1,0,0,1,.84.94l4.18,52a1,1,0,0,1-.62,1l-29.64,13A1,1,0,0,1,2364.06,1227.83Z"/><path class="cls-6" d="M2518,1218.14a1.1,1.1,0,0,1-.25,0c-50.42-12.11-52.95-113.22-53-117.52a1.14,1.14,0,0,1,.25-.71c.19-.22,18.78-22.07,16.83-46.45s-33.48-52.24-33.8-52.52a1.06,1.06,0,0,1-.1-1.48,1.07,1.07,0,0,1,1.48-.1c1.33,1.16,32.49,28.68,34.51,53.94,1.91,23.94-14.65,44.77-17.06,47.67.21,7,4.08,103.77,51.42,115.13a1,1,0,0,1-.25,2.06Z"/><path class="cls-6" d="M2340.57,1087.26c-12.74,0-27.89-3.85-45.13-14.93a1,1,0,0,1-.31-1.45,1,1,0,0,1,1.44-.31c54.84,35.24,87.7-4.4,88-4.8a1,1,0,1,1,1.62,1.31A62.18,62.18,0,0,1,2340.57,1087.26Z"/><path class="cls-6" d="M2699.15,1328.64a1,1,0,0,1-1-.86c-.17-.89-18.48-89.25-163.11-99.71a1,1,0,0,1-1-1.12,1,1,0,0,1,1.11-1c146.34,10.58,164.86,100.51,165,101.42a1.05,1.05,0,0,1-.84,1.22Z"/><path class="cls-13" d="M2416.8,1169l5.35.16c16.49.52,65.82,2.22,71.54,4.23,6.89,2.43-13.84,45.47-13.84,45.47s-59.28,3.24-78.36-9.48S2416.8,1169,2416.8,1169Z"/><path class="cls-13" d="M2472,1219.1s33.06,15,36,11.69-25.89-20-25.89-20Z"/><path class="cls-13" d="M2481,1208.5s49,20.14,52.66,13.38-50.47-24.25-50.47-24.25Z"/><path class="cls-13" d="M2487.54,1196.63s50.53,15.79,53.63,8.73-52.4-19.74-52.4-19.74Z"/><path class="cls-13" d="M2490.1,1183.9s47.2,15.42,50.15,8.34-48.92-19.35-48.92-19.35Z"/><polygon class="cls-13" points="2428.08 1170.39 2390.84 1165.72 2394.27 1207.83 2413.43 1212.12 2428.08 1170.39"/><polygon class="cls-6" points="2849.82 1040.11 2577.25 1039.73 2491.5 1239.03 2764.07 1239.41 2849.82 1040.11"/><rect class="cls-6" x="2362.54" y="1226.91" width="182.48" height="12.06" transform="translate(1.73 -3.44) rotate(0.08)"/><path class="cls-10" d="M2685.64,1136.65a12,12,0,1,1,12.07,11.93A12,12,0,0,1,2685.64,1136.65Z"/><path class="cls-6" d="M2353.81,639.75a46,46,0,1,0-46,46A46,46,0,0,0,2353.81,639.75Z"/><rect class="cls-5" x="1988.23" y="462.73" width="16.74" height="909.56"/><rect class="cls-4" x="1803.74" y="390.4" width="385.72" height="131.09"/><path class="cls-5" d="M2044.83,528.52a5.53,5.53,0,1,0-5.53,5.53A5.53,5.53,0,0,0,2044.83,528.52Z"/><path class="cls-5" d="M2044.83,540.69a5.53,5.53,0,1,0-5.53,5.52A5.53,5.53,0,0,0,2044.83,540.69Z"/><path class="cls-5" d="M2044.83,552.85a5.53,5.53,0,1,0-5.53,5.53A5.54,5.54,0,0,0,2044.83,552.85Z"/><path class="cls-5" d="M2044.83,565a5.53,5.53,0,1,0-5.53,5.53A5.54,5.54,0,0,0,2044.83,565Z"/><path class="cls-5" d="M2044.83,577.17a5.53,5.53,0,1,0-5.53,5.53A5.54,5.54,0,0,0,2044.83,577.17Z"/><path class="cls-5" d="M2044.83,589.34a5.53,5.53,0,1,0-5.53,5.52A5.53,5.53,0,0,0,2044.83,589.34Z"/><path class="cls-5" d="M2044.83,601.5a5.53,5.53,0,1,0-5.53,5.53A5.53,5.53,0,0,0,2044.83,601.5Z"/><path class="cls-5" d="M2044.83,613.66a5.53,5.53,0,1,0-5.53,5.53A5.54,5.54,0,0,0,2044.83,613.66Z"/><circle class="cls-4" cx="2541.29" cy="443.25" r="118.41" transform="translate(1625.47 2854.87) rotate(-79.1)"/><circle class="cls-10" cx="2538.99" cy="442.38" r="94.19" transform="translate(2026.34 2968.13) rotate(-88.41)"/><path class="cls-5" d="M2549.43,441.44A10.55,10.55,0,1,0,2538.88,452,10.54,10.54,0,0,0,2549.43,441.44Z"/><path class="cls-5" d="M2538.88,443.53h-2.11a2.09,2.09,0,0,1,0-4.18h0l.1-65-2.61,3.79a2.09,2.09,0,1,1-3.45-2.37l6.44-9.34a2.1,2.1,0,0,1,3.82,1.19l-.12,73.82A2.09,2.09,0,0,1,2538.88,443.53Z"/><path class="cls-5" d="M2546.11,378.46a2.09,2.09,0,0,1-1.62-.78l-7.12-8.73a2.1,2.1,0,0,1,3.25-2.65l7.11,8.74a2.09,2.09,0,0,1-.3,2.95A2.11,2.11,0,0,1,2546.11,378.46Z"/><path class="cls-5" d="M2501,450.31a2,2,0,0,1-1.5-.64l-6.22-6.44a2.09,2.09,0,0,1,1.5-3.54h0l49.11.11a2.1,2.1,0,0,1,2.09,2.09V444a2.1,2.1,0,1,1-4.19,0v0l-42.08-.09,2.78,2.88a2.08,2.08,0,0,1-1.5,3.54Z"/><path class="cls-5" d="M2494.74,443.87a2.09,2.09,0,0,1-1.62-3.41l5.81-7.12a2.1,2.1,0,0,1,3.25,2.65l-5.81,7.12A2.12,2.12,0,0,1,2494.74,443.87Z"/><rect class="cls-5" x="1752.2" y="1305.76" width="337.51" height="385.3"/><rect class="cls-4" x="1714.03" y="1277.31" width="409.83" height="41.24"/><rect class="cls-4" x="1773.3" y="1353.71" width="288.29" height="128.57"/><rect class="cls-4" x="1773.3" y="1505.02" width="288.29" height="128.57"/><rect class="cls-5" x="1884.8" y="1365.76" width="63.28" height="13.06"/><rect class="cls-5" x="1884.8" y="1517.44" width="63.28" height="13.06"/><path class="cls-12" d="M1879.12,1187.94H1707.5v5h88a16.06,16.06,0,0,1,16.07,16.06h0a16.06,16.06,0,0,1-16.07,16.07h-88v4.63h171.62A20.85,20.85,0,0,0,1900,1208.8h0A20.86,20.86,0,0,0,1879.12,1187.94Z"/><path class="cls-5" d="M1819.45,1208.8h0a20.86,20.86,0,0,0-20.86-20.86H1707.5v5h88a16.06,16.06,0,0,1,16.07,16.06h0a16.06,16.06,0,0,1-16.07,16.07h-88v4.63h91.09A20.85,20.85,0,0,0,1819.45,1208.8Z"/><path class="cls-10" d="M1795.55,1192.9h-88v.11a16.07,16.07,0,0,1,14.21,16h0a16.06,16.06,0,0,1-14.21,16v.11h88a16.07,16.07,0,0,0,16.07-16.07h0A16.07,16.07,0,0,0,1795.55,1192.9Z"/><path class="cls-3" d="M1811.62,1208.8a16.07,16.07,0,0,0-16.07-16.07h-88v.11a16.07,16.07,0,0,1,10.36,5.53c17.61-1.39,70.14-3,75.67,26.49h2A16.06,16.06,0,0,0,1811.62,1208.8Z"/><path class="cls-4" d="M1735.31,1229.65h179.84v5.68h-92.27c-9.3,0-16.83,8.25-16.83,18.44h0c0,10.18,7.53,18.44,16.83,18.44h92.27v5.32H1735.31c-12.07,0-21.86-10.72-21.86-23.94h0C1713.45,1240.37,1723.24,1229.65,1735.31,1229.65Z"/><path class="cls-5" d="M1797.84,1253.59h0c0-13.22,9.79-23.94,21.86-23.94h95.45v5.68h-92.27c-9.3,0-16.83,8.25-16.83,18.44h0c0,10.18,7.53,18.44,16.83,18.44h92.27v5.32H1819.7C1807.63,1277.53,1797.84,1266.81,1797.84,1253.59Z"/><path class="cls-10" d="M1822.88,1235.35h92.27v.12c-8.39,1.06-14.9,8.85-14.9,18.32h0c0,9.46,6.51,17.26,14.9,18.31v.13h-92.27c-9.3,0-16.83-8.26-16.83-18.44h0C1806.05,1243.6,1813.58,1235.35,1822.88,1235.35Z"/><path class="cls-3" d="M1806.05,1253.59c0-10.18,7.53-18.44,16.83-18.44h92.27v.13a16.39,16.39,0,0,0-10.86,6.34c-18.46-1.6-73.49-3.47-79.29,30.41h-2.12C1813.58,1272,1806.05,1263.78,1806.05,1253.59Z"/><path class="cls-4" d="M2957.19,656.09h-89a3.91,3.91,0,0,1-3.9-3.9v-89a3.91,3.91,0,0,1,3.9-3.9h89a3.9,3.9,0,0,1,3.9,3.9v89A3.9,3.9,0,0,1,2957.19,656.09Zm-85.09-7.8h81.19v-81.2H2872.1Z"/><path class="cls-4" d="M2912.7,635.26h-.08a3.91,3.91,0,0,1-3.33-2c-.12-.22-12.24-21.92-27.6-35.5a3.9,3.9,0,1,1,5.16-5.84c11.53,10.19,21.07,24.17,25.88,31.89,29.3-47.77,50.88-75.13,51.1-75.41a3.9,3.9,0,1,1,6.12,4.84c-.23.29-23.2,29.42-53.92,80.15A3.9,3.9,0,0,1,2912.7,635.26Z"/><path class="cls-4" d="M2957.19,510.54h-89a3.91,3.91,0,0,1-3.9-3.9v-89a3.91,3.91,0,0,1,3.9-3.9h89a3.9,3.9,0,0,1,3.9,3.9v89A3.9,3.9,0,0,1,2957.19,510.54Zm-85.09-7.81h81.19V421.54H2872.1Z"/><path class="cls-4" d="M2912.7,489.71h-.08a3.91,3.91,0,0,1-3.33-2c-.12-.22-12.24-21.92-27.6-35.5a3.9,3.9,0,0,1,5.16-5.85c11.53,10.2,21.07,24.18,25.88,31.9,29.3-47.77,50.88-75.13,51.1-75.41a3.9,3.9,0,1,1,6.12,4.84c-.23.29-23.2,29.42-53.92,80.15A3.88,3.88,0,0,1,2912.7,489.71Z"/><polygon class="cls-10" points="2790.67 655.6 2617.11 655.6 2617.11 969.21 2839.39 969.21 2839.39 698.74 2790.67 655.6"/><path class="cls-14" d="M2853.11,700.93h-62.44a2.08,2.08,0,0,1-2.09-2.09V655.6a2.09,2.09,0,1,1,4.18,0v41.15h60.35a2.09,2.09,0,1,1,0,4.18Z"/><path class="cls-4" d="M2771.75,698.37H2679a2.1,2.1,0,1,1,0-4.19h92.72a2.1,2.1,0,0,1,0,4.19Z"/><path class="cls-4" d="M2821.89,738.84h-187.3a2.1,2.1,0,0,1,0-4.19h187.3a2.1,2.1,0,0,1,0,4.19Z"/><path class="cls-4" d="M2821.89,752.94h-187.3a2.1,2.1,0,0,1,0-4.19h187.3a2.1,2.1,0,0,1,0,4.19Z"/><path class="cls-4" d="M2821.89,773.07h-187.3a2.09,2.09,0,0,1,0-4.18h187.3a2.09,2.09,0,1,1,0,4.18Z"/><path class="cls-4" d="M2821.89,787.17h-187.3a2.09,2.09,0,0,1,0-4.18h187.3a2.09,2.09,0,1,1,0,4.18Z"/><path class="cls-4" d="M2821.89,801.27h-187.3a2.09,2.09,0,0,1,0-4.18h187.3a2.09,2.09,0,1,1,0,4.18Z"/><path class="cls-4" d="M2821.89,815.38h-187.3a2.1,2.1,0,0,1,0-4.19h187.3a2.1,2.1,0,0,1,0,4.19Z"/><path class="cls-4" d="M2821.89,868.86h-187.3a2.09,2.09,0,0,1,0-4.18h187.3a2.09,2.09,0,1,1,0,4.18Z"/><path class="cls-4" d="M2821.89,883h-187.3a2.1,2.1,0,0,1,0-4.19h187.3a2.1,2.1,0,0,1,0,4.19Z"/><path class="cls-4" d="M2821.89,897.07h-187.3a2.1,2.1,0,0,1,0-4.19h187.3a2.1,2.1,0,0,1,0,4.19Z"/><path class="cls-4" d="M2821.89,911.17h-187.3a2.1,2.1,0,0,1,0-4.19h187.3a2.1,2.1,0,0,1,0,4.19Z"/><path class="cls-10" d="M1889.16,1013.29c-4.78-7.34-14.75-11.85-15.51-20.57-.29-3.24.79-6.8-.9-9.58-1.85-3-6.07-3.53-9.63-3.18-3.9.4-8,1.59-10.45,4.69-3,3.91-2.35,9.42-3.31,14.27-2.3,11.7-13.82,18.89-24.34,24.51-5.46,2.92-11.19,6-14.51,11.24-5.62,8.85-2.52,20.34-3,30.81a43.76,43.76,0,0,1-8,23.24c-2.84,4-6.34,7.48-9,11.6s-4.38,9.17-3.14,13.9c.82,3.12,3.94,7.12,7.48,7.25,4.65.17,4.41-3.39,5.6-6.74,2.59-7.25,8.43-11,16-12,6.36-.93,12.86-.17,19.22-1.09s13-4.06,15.41-10c2.26-5.61.16-12,1.07-18,1.27-8.29,8-14.49,14.34-20l16.3-14.14a33.28,33.28,0,0,0,6.83-7.25A18.08,18.08,0,0,0,1889.16,1013.29ZM1873,1032.8c-5.78,6.41-14.92,7-22.47,10.09-5.87,2.39-11,5.28-17.55,5-4.28-.2-9.53-1.5-9.66-6.61-.22-8.82,11.78-10.37,18-10.74,3.88-.24,7.86-.53,11.34-2.25a15,15,0,0,0,6.21-5.78c1-1.69,1.67-3.62,3.06-5a7.46,7.46,0,0,1,3.35-1.89,9,9,0,0,1,9.85,4C1877.62,1023.66,1876.22,1029.24,1873,1032.8Z"/><rect class="cls-7" x="1767.58" y="1115.14" width="60.27" height="72.8"/><path class="cls-7" d="M1846.68,1170.31h-23.35a4.19,4.19,0,1,1,0-8.37h19.17V1134.4h-16.91a4.19,4.19,0,1,1,0-8.37h21.09a4.18,4.18,0,0,1,4.19,4.18v35.91A4.19,4.19,0,0,1,1846.68,1170.31Z"/></svg>