<?xml version="1.0" encoding="utf-8"?>
<!-- Generator: Adobe Illustrator 24.1.2, SVG Export Plug-In . SVG Version: 6.00 Build 0)  -->
<svg version="1.1" id="_ÎÓÈ_1" xmlns="http://www.w3.org/2000/svg" xmlns:xlink="http://www.w3.org/1999/xlink" x="0px" y="0px"
	 viewBox="0 0 3600 2000" style="enable-background:new 0 0 3600 2000;" xml:space="preserve">
<style type="text/css">
	.st0{fill:#FFFFFF;}
	.st1{fill:#A4E6E1;}
	.st2{fill:#DCEFEB;}
	.st3{fill:#62C1C5;}
	.st4{fill:#1F8B8D;}
	.st5{fill:#1A264C;}
	.st6{fill:#FDD246;}
	.st7{fill:#EA6868;}
	.st8{fill:#FB9391;}
	.st9{fill:#213361;}
	.st10{fill:#13676B;}
	.st11{fill:#F78181;}
	.st12{fill:#DDE7FE;}
</style>
<rect x="-0.5" y="0" class="st0" width="3600" height="2000"/>
<path class="st1" d="M3201.1,2000c-71.9-17.3-125.8-103.1-118.1-201.7c7.2-92.2,85.1-170.5,44.2-289.3
	c-39-113.3-387.4-149.8-476.9-226.1c-44.4-37.8-81.5-120-82.3-178.3c-1.2-83,57.7-202.6-35.5-290.4c-91.3-86-344-50.1-390.9-38.1
	c-69.7,17.8-162.3-9.2-200.5-70.2c-58-92.4-95.8-195.3-132-298.3c-4.8-13.8-43.9-91.9-142.8-108.8c-29.3-5-71.5-4.5-100.8,0
	c-28.9,4.4-126,33.7-153.8,42.9c-227.7,75.9-356.5,25-424.4-42.9C903.1,214.4,893.6,54.3,910.2,0H3600v1999.4L3201.1,2000z"/>
<path class="st2" d="M3089.1,1683.4c65-36,97.4-112.9,135-187.2c43.3-85.8,76.6-180.4,69.2-276.3c-11.2-144.2-111.4-267.1-139.4-409
	c-25.5-129.4-17.2-270.3-81-389.6c-60.1-112.4-175-176.6-297.2-200.1c-108.3-20.8-219.8-13.4-330-8.5
	c-141.2,6.3-283.2,8.6-422.3,33.7c-107.5,19.5-217.7,64.4-240.6,183c-8.4,43.4-7.4,88-13.7,131.7c-17.4,119.1-86.6,220.8-127.4,332
	c-76.2,207.7-46.9,441.5,62.6,631.9c43.3,75.3,105.6,142.4,185.5,176.5c58.1,24.8,122.2,31.1,185.3,34.9
	c310.6,18.6,626.8-18.5,937.3-32.3C3042.4,1702.8,3067.5,1695.3,3089.1,1683.4z"/>
<ellipse class="st3" cx="2466.2" cy="1715.5" rx="754.9" ry="77.2"/>
<path class="st3" d="M3124.3,737.3c31.6,6.5,60,29.3,63.2,78.9c3.1,46.9-22.6,93.4-9.9,139.9c13,47.7,50.2,64,36.6,123.1
	c-4.8,21-12.6,41.5-12.2,63.6c0.8,46.2,33.1,74.5,48.9,110.8c20.4,46.8,12.8,111.3-14.3,149.8c-51.6,73.2-139.1,46.9-204.1,40
	c-37.8-4-71.9-31.1-81.4-85.9c-11-63.7,17.8-94.4,35.7-144.7c17.5-49-4-106.7-4.6-161.5c-0.6-61.2,34.8-94.8,41.3-151
	c4.7-40.7-11.7-82.6,4.6-121c7.5-18.1,22.5-32.1,41.1-38.4C3087.1,735,3106,733.8,3124.3,737.3z"/>
<rect x="3101.9" y="1030.4" class="st4" width="7.5" height="577.6"/>
<rect x="3070.2" y="1143.7" transform="matrix(0.9095 -0.4156 0.4156 0.9095 -228.9744 1388.0519)" class="st4" width="7.5" height="152.5"/>
<rect x="3082.1" y="1340.7" transform="matrix(0.5711 -0.8209 0.8209 0.5711 241.5795 3151.3684)" class="st4" width="109.3" height="7.5"/>
<path class="st4" d="M3028.2,1586.7h151.5l0,0v108.6c0,6.1-4.9,11-11,11h-129.5c-6.1,0-11-4.9-11-11L3028.2,1586.7L3028.2,1586.7z"
	/>
<path class="st5" d="M2431.8,1710.2c-0.8,0-1.7-0.1-2.5-0.3c-5.6-1.4-9.1-7-7.7-12.6c0,0,0,0,0,0l40.2-164.3
	c1.5-5.6,7.2-8.9,12.8-7.4c5.4,1.5,8.7,6.9,7.5,12.4l-40.2,164.2C2440.8,1706.9,2436.7,1710.2,2431.8,1710.2z"/>
<path class="st5" d="M2205.7,1710.2c-0.8,0-1.7-0.1-2.5-0.3c-5.6-1.4-9-7-7.7-12.7l58.3-238.3c1.4-5.6,7.1-9,12.7-7.7
	s9,7.1,7.7,12.7l0,0l-58.3,238.3C2214.7,1706.9,2210.5,1710.2,2205.7,1710.2z"/>
<path class="st6" d="M2296,850.4c401.6,0,324.4,413,451,406s185.3,291.2-275,291.2S1926.4,850.4,2296,850.4z"/>
<path class="st5" d="M2399,802c3,0,63.6-17.6,57-92.9s-72.9-82.9-106.8-78.3s-92.7,53.9-69.3,111.7s52.7,79.7,52.7,79.7L2399,802z"
	/>
<path class="st7" d="M2440.9,764.3c0,0,7.7-7.9,11.7-3.3c10.3,11.6-5.1,21.6-13.6,22.8L2440.9,764.3z"/>
<path class="st8" d="M2385.6,640.5c-37.4-4.5-72.8,20.1-81.6,56.6c-2.8,11.5-2.9,23.6-0.1,35.1c5.3,27.5,9.9,49.8,17.5,66.8
	c7.9,17.1,8.9,36.6,3,54.5l-6.1,18c38.8,29.5,60.9,15.1,60.9,15.1l8.7-46.4l0,0c47.4,3.2,57.3-83.5,62-108.8h-0.1
	c0.2-0.9,0.4-1.9,0.6-2.8c7.6-40.7-19.2-79.8-59.8-87.5C2388.9,640.9,2387.2,640.7,2385.6,640.5z"/>
<path class="st5" d="M2366.2,714.4c-10.7,7.5-20.5,16.2-30.2,25c-10.3,9.3-21,19.1-25.4,32.3c-10.2-11.3-15.4-26.3-19.2-41.1
	c-1.8-6.8-3.4-13.8-3.1-20.9c0.4-10,4.7-19.4,8.9-28.5c5.4-11.8,11.1-24,21.3-32c6.8-5.3,15-8.3,23.3-10.4
	c19.4-4.9,40.2-5.3,59.2,1.1s35.8,19.8,44.5,37.8c11.1,23.2,7.7,50.5,4.1,76c-0.6-11-5.9-21.1-11-30.8c-3.4-6.3-6.8-12.7-12.1-17.6
	c-8.9-8.3-12-7.4-27.6-22.8C2391.2,697.2,2379.7,705,2366.2,714.4z"/>
<path class="st5" d="M2431.6,762.8c1-3.5-1-7.1-4.5-8.1c-3.5-1-7.1,1-8.1,4.5c-1,3.5,1,7.1,4.5,8.1
	C2426.9,768.2,2430.6,766.2,2431.6,762.8z"/>
<path class="st5" d="M2366.6,758.2c1-3.5-1-7.1-4.5-8.1s-7.1,1-8.1,4.5c-1,3.5,1,7.1,4.5,8.1c0,0,0,0,0,0
	C2362,763.6,2365.6,761.6,2366.6,758.2C2366.6,758.2,2366.6,758.2,2366.6,758.2z"/>
<path class="st7" d="M2411.4,801.9c0,0-7.9-6.6-11.4-6.1s-5.8,4.2-5.8,4.2s-1.4-4.3-5.5-4.8s-18.5,5.2-18.5,5.2s10.4,18.8,22.9,18.2
	C2405.9,818,2411.4,801.9,2411.4,801.9L2411.4,801.9z"/>
<path class="st5" d="M2348.6,747.8c-1.5-0.3-2.4-1.7-2.2-3.2c0.2-0.8,0.6-1.5,1.3-1.8c6.7-3.3,14.4-4.2,21.7-2.5
	c1.5,0.4,2.3,1.8,2,3.3c-0.4,1.4-1.8,2.3-3.3,2c-6-1.4-12.2-0.7-17.8,2C2349.8,747.8,2349.2,747.9,2348.6,747.8z"/>
<path class="st5" d="M2415.5,750c-0.7-0.4-1.2-1-1.4-1.8c-0.3-1.5,0.6-2.9,2-3.3c7.4-1.3,15-0.1,21.5,3.6c1.3,0.7,1.8,2.4,1,3.7
	c-0.7,1.3-2.4,1.8-3.7,1c-5.4-3-11.6-4.1-17.6-3C2416.7,750.4,2416,750.3,2415.5,750z"/>
<path class="st7" d="M2391,788.1c7.8,0.3,11.4-5,12.3-8.2c0.2-0.6,0.1-1.2-0.2-1.7c-5.3-9.6-2.3-21.6-2.2-21.8
	c0.3-1.2-0.5-2.5-1.7-2.7c-1.2-0.3-2.3,0.4-2.7,1.6c-0.1,0.5-3.3,13.2,2.2,24.2c-0.8,1.7-3.4,5.3-10.5,3.6c-1.2-0.3-2.5,0.5-2.8,1.7
	c-0.3,1.2,0.5,2.5,1.7,2.8C2388.3,787.8,2389.6,788,2391,788.1z"/>
<path class="st0" d="M2370.3,800.4c0,0,24.9,2.2,41.1,1.5c0,0-9,11.6-18.4,10.4S2370.3,800.4,2370.3,800.4z"/>
<path class="st5" d="M2360,779.4c-12.5,0-22.7-10.2-22.7-22.7s10.2-22.7,22.7-22.7c12.5,0,22.7,10.2,22.7,22.7l0,0
	C2382.7,769.3,2372.5,779.4,2360,779.4z M2360,736.1c-11.4,0-20.6,9.2-20.6,20.6s9.2,20.6,20.6,20.6c11.4,0,20.6-9.2,20.6-20.6
	c0,0,0,0,0,0C2380.6,745.4,2371.4,736.1,2360,736.1z"/>
<path class="st5" d="M2425.3,782.3c-12.5,0-22.7-10.2-22.7-22.7c0-12.5,10.2-22.7,22.7-22.7c12.5,0,22.7,10.2,22.7,22.7c0,0,0,0,0,0
	C2448,772.1,2437.8,782.3,2425.3,782.3z M2425.3,739c-11.4,0-20.6,9.2-20.6,20.6s9.2,20.6,20.6,20.6c11.4,0,20.6-9.2,20.6-20.6
	c0,0,0,0,0,0C2445.9,748.2,2436.7,739,2425.3,739L2425.3,739z"/>
<rect x="2324" y="739.4" transform="matrix(0.113 -0.9936 0.9936 0.113 1314.1123 2977.958)" class="st5" width="2.1" height="27.1"/>
<path class="st5" d="M2402.9,761c-0.3-0.3-8.4-7.5-21-0.5l-1-1.8c13.9-7.8,23.3,0.7,23.4,0.8L2402.9,761z"/>
<path class="st8" d="M2322.4,757.1c-0.8-2.6-2.5-4.8-4.8-6.3c-4.7-3-13.2-6.9-20.6-1.9c-10.7,7.3,3,34.7,23.2,26.2
	C2320.3,775.1,2326.4,770.9,2322.4,757.1z"/>
<path class="st8" d="M2798.8,1581c0,0-4.1,99.5,6.5,106.8s123.8,0,123.8,0l-29.9-37.2c0,0-61.5,8.9-60.7-74.5L2798.8,1581z"/>
<path class="st9" d="M2850.7,1696.7c0,0,7.2-56.7,21.8-58.3s65.6,15.4,67.2,58.3H2850.7z"/>
<rect x="2798" y="1691.1" class="st9" width="141" height="8.7"/>
<path class="st8" d="M2591.9,1581c0,0-4,99.5,6.5,106.8s123.8,0,123.8,0l-29.9-37.2c0,0-61.5,8.9-60.7-74.5L2591.9,1581z"/>
<path class="st9" d="M2643.8,1696.7c0,0,7.2-56.7,21.8-58.3s65.6,15.4,67.2,58.3H2643.8z"/>
<rect x="2591.1" y="1691.1" class="st9" width="141" height="8.7"/>
<path class="st10" d="M2759.1,1233c0,0,79.9,6.5,105.5,108.2c14.9,59.1,9,251.6,9,251.6l-103.5,16.2c0,0,9.3-215.1-70.9-281.4
	c0,0,16.2,43.7-42.5,292.3h-76.8l-25.6-254.6c0,0-180.8,6-235-39.2s-59.7-99.3-59.7-99.3l255.5-38.8L2759.1,1233z"/>
<path class="st0" d="M2300,887.1c0,0,5-38.7,13.1-36.7s79.4,15,86.4,13.5s0,32.7,0,32.7s58.3,5,78.4,39.2s46.2,161.7,63.3,172.8
	s93.4,46.2,93.4,46.2l-138.9,78.2l-131.6-6.2c0,0-95.2,57-169.5,12.6s-61.3-277.5,9-318.6S2300,887.1,2300,887.1z"/>
<path class="st5" d="M2364.1,1227.8c-0.4,0-0.8-0.2-1-0.6c-0.2-0.5,0-1.1,0.5-1.3c0,0,0.1,0,0.1,0l29-12.7l-4.1-50.4
	c-8.8-1.7-90.2-17.6-129.1-22.1c-0.5-0.1-0.9-0.5-0.9-1c-0.1-3.9-1.4-95.6,4.6-109.2c0.2-0.5,0.8-0.8,1.3-0.6c0,0,0.1,0,0.1,0
	c0.5,0.2,0.8,0.8,0.5,1.4c-5.6,12.5-4.6,97.6-4.4,107.4c41.4,4.9,128.2,22,129.1,22.2c0.5,0.1,0.8,0.5,0.8,0.9l4.2,52
	c0,0.4-0.2,0.8-0.6,1l-29.6,13C2364.4,1227.8,2364.2,1227.8,2364.1,1227.8z"/>
<path class="st5" d="M2518,1218.1c-0.1,0-0.2,0-0.2,0c-50.4-12.1-52.9-113.2-53-117.5c0-0.3,0.1-0.5,0.2-0.7
	c0.2-0.2,18.8-22.1,16.8-46.4s-33.5-52.2-33.8-52.5c-0.4-0.4-0.5-1-0.1-1.5c0.4-0.4,1-0.5,1.5-0.1c1.3,1.2,32.5,28.7,34.5,53.9
	c1.9,23.9-14.6,44.8-17.1,47.7c0.2,7,4.1,103.8,51.4,115.1c0.6,0.1,1,0.6,0.9,1.2S2518.6,1218.2,2518,1218.1L2518,1218.1z"/>
<path class="st5" d="M2340.6,1087.3c-12.7,0-27.9-3.8-45.1-14.9c-0.5-0.3-0.6-0.9-0.4-1.4c0,0,0-0.1,0.1-0.1
	c0.3-0.5,0.9-0.6,1.4-0.4c0,0,0,0,0.1,0c54.8,35.2,87.7-4.4,88-4.8c0.4-0.4,1-0.5,1.5-0.2s0.5,1,0.2,1.5
	C2374.5,1079.9,2357.9,1087.2,2340.6,1087.3z"/>
<path class="st5" d="M2699.1,1328.6c-0.5,0-0.9-0.4-1-0.9c-0.2-0.9-18.5-89.2-163.1-99.7c-0.6,0-1-0.4-1-1c0,0,0-0.1,0-0.1
	c0-0.6,0.4-1,1-1c0,0,0.1,0,0.1,0c146.3,10.6,164.9,100.5,165,101.4c0.1,0.6-0.3,1.1-0.8,1.2L2699.1,1328.6z"/>
<path class="st11" d="M2416.8,1169l5.4,0.2c16.5,0.5,65.8,2.2,71.5,4.2c6.9,2.4-13.8,45.5-13.8,45.5s-59.3,3.2-78.4-9.5
	S2416.8,1169,2416.8,1169z"/>
<path class="st11" d="M2472,1219.1c0,0,33.1,15,36,11.7s-25.9-20-25.9-20L2472,1219.1z"/>
<path class="st11" d="M2481,1208.5c0,0,49,20.1,52.7,13.4s-50.5-24.2-50.5-24.2L2481,1208.5z"/>
<path class="st11" d="M2487.5,1196.6c0,0,50.5,15.8,53.6,8.7s-52.4-19.7-52.4-19.7L2487.5,1196.6z"/>
<path class="st11" d="M2490.1,1183.9c0,0,47.2,15.4,50.1,8.3s-48.9-19.3-48.9-19.3L2490.1,1183.9z"/>
<polygon class="st11" points="2428.1,1170.4 2390.8,1165.7 2394.3,1207.8 2413.4,1212.1 "/>
<polygon class="st5" points="2849.8,1040.1 2577.2,1039.7 2491.5,1239 2764.1,1239.4 "/>
<rect x="2447.8" y="1141.7" transform="matrix(1.396262e-03 -1 1 1.396262e-03 1217.4374 3684.9907)" class="st5" width="12.1" height="182.5"/>
<path class="st0" d="M2685.6,1136.7c0-6.6,5.3-12,11.9-12.1c6.6,0,12,5.3,12.1,11.9c0,6.6-5.3,12-11.9,12.1
	S2685.7,1143.3,2685.6,1136.7C2685.6,1136.7,2685.6,1136.7,2685.6,1136.7z"/>
<path class="st5" d="M2353.8,639.8c0-25.4-20.6-46-46-46s-46,20.6-46,46s20.6,46,46,46S2353.8,665.2,2353.8,639.8L2353.8,639.8z"/>
<rect x="1988.2" y="462.7" class="st4" width="16.7" height="909.6"/>
<rect x="1803.7" y="390.4" class="st3" width="385.7" height="131.1"/>
<path class="st4" d="M2044.8,528.5c0-3.1-2.5-5.5-5.5-5.5s-5.5,2.5-5.5,5.5c0,3.1,2.5,5.5,5.5,5.5S2044.8,531.6,2044.8,528.5
	L2044.8,528.5z"/>
<path class="st4" d="M2044.8,540.7c0-3.1-2.5-5.5-5.5-5.5c-3.1,0-5.5,2.5-5.5,5.5c0,3.1,2.5,5.5,5.5,5.5c0,0,0,0,0,0
	C2042.4,546.2,2044.8,543.7,2044.8,540.7z"/>
<path class="st4" d="M2044.8,552.8c0-3.1-2.5-5.5-5.5-5.5s-5.5,2.5-5.5,5.5c0,3.1,2.5,5.5,5.5,5.5
	C2042.4,558.4,2044.8,555.9,2044.8,552.8z"/>
<path class="st4" d="M2044.8,565c0-3.1-2.5-5.5-5.5-5.5s-5.5,2.5-5.5,5.5c0,3.1,2.5,5.5,5.5,5.5
	C2042.4,570.5,2044.8,568.1,2044.8,565z"/>
<path class="st4" d="M2044.8,577.2c0-3.1-2.5-5.5-5.5-5.5s-5.5,2.5-5.5,5.5c0,3.1,2.5,5.5,5.5,5.5
	C2042.4,582.7,2044.8,580.2,2044.8,577.2z"/>
<path class="st4" d="M2044.8,589.3c0-3.1-2.5-5.5-5.5-5.5c-3.1,0-5.5,2.5-5.5,5.5c0,3.1,2.5,5.5,5.5,5.5c0,0,0,0,0,0
	C2042.4,594.9,2044.8,592.4,2044.8,589.3z"/>
<path class="st4" d="M2044.8,601.5c0-3.1-2.5-5.5-5.5-5.5s-5.5,2.5-5.5,5.5c0,3.1,2.5,5.5,5.5,5.5S2044.8,604.6,2044.8,601.5
	L2044.8,601.5z"/>
<path class="st4" d="M2044.8,613.7c0-3.1-2.5-5.5-5.5-5.5s-5.5,2.5-5.5,5.5c0,3.1,2.5,5.5,5.5,5.5
	C2042.4,619.2,2044.8,616.7,2044.8,613.7z"/>
<ellipse transform="matrix(0.7071 -0.7071 0.7071 0.7071 430.8992 1926.7723)" class="st3" cx="2541.3" cy="443.2" rx="118.4" ry="118.4"/>
<circle class="st0" cx="2539" cy="442.4" r="94.2"/>
<path class="st4" d="M2549.4,441.4c0-5.8-4.7-10.5-10.6-10.5c-5.8,0-10.5,4.7-10.5,10.6c0,5.8,4.7,10.5,10.6,10.5
	C2544.7,452,2549.4,447.3,2549.4,441.4C2549.4,441.5,2549.4,441.5,2549.4,441.4z"/>
<path class="st4" d="M2538.9,443.5h-2.1c-1.2,0-2.1-0.9-2.1-2.1c0-1.2,0.9-2.1,2.1-2.1l0,0l0.1-65l-2.6,3.8c-0.7,1-2,1.2-2.9,0.5
	s-1.2-2-0.5-2.9l0,0l6.4-9.3c0.7-0.9,2-1.2,2.9-0.5c0.6,0.4,0.9,1,0.9,1.7l-0.1,73.8C2540.9,442.6,2540,443.5,2538.9,443.5z"/>
<path class="st4" d="M2546.1,378.5c-0.6,0-1.2-0.3-1.6-0.8l-7.1-8.7c-0.7-0.9-0.5-2.3,0.5-2.9c0.9-0.6,2.1-0.5,2.8,0.3l7.1,8.7
	c0.7,0.9,0.6,2.2-0.3,2.9c0,0,0,0,0,0C2547.1,378.3,2546.6,378.5,2546.1,378.5z"/>
<path class="st4" d="M2501,450.3c-0.6,0-1.1-0.2-1.5-0.6l-6.2-6.4c-0.8-0.8-0.8-2.2,0.1-3c0.4-0.4,0.9-0.6,1.4-0.6l0,0l49.1,0.1
	c1.2,0,2.1,0.9,2.1,2.1v2.1c0.1,1.2-0.8,2.2-1.9,2.2c-1.2,0.1-2.2-0.8-2.2-1.9c0-0.1,0-0.2,0-0.3l0,0l-42.1-0.1l2.8,2.9
	c0.8,0.8,0.8,2.1,0,2.9C2502.1,450.1,2501.5,450.3,2501,450.3L2501,450.3z"/>
<path class="st4" d="M2494.7,443.9c-1.2,0-2.1-0.9-2.1-2.1c0-0.5,0.2-0.9,0.5-1.3l5.8-7.1c0.8-0.9,2.1-0.9,3-0.1
	c0.8,0.7,0.9,1.9,0.3,2.8l-5.8,7.1C2496,443.6,2495.4,443.9,2494.7,443.9z"/>
<rect x="1752.2" y="1305.8" class="st4" width="337.5" height="385.3"/>
<rect x="1714" y="1277.3" class="st3" width="409.8" height="41.2"/>
<rect x="1773.3" y="1353.7" class="st3" width="288.3" height="128.6"/>
<rect x="1773.3" y="1505" class="st3" width="288.3" height="128.6"/>
<rect x="1884.8" y="1365.8" class="st4" width="63.3" height="13.1"/>
<rect x="1884.8" y="1517.4" class="st4" width="63.3" height="13.1"/>
<path class="st10" d="M1879.1,1187.9h-171.6v5h88c8.9,0,16.1,7.2,16.1,16.1c0,0,0,0,0,0l0,0c0,8.9-7.2,16.1-16.1,16.1c0,0,0,0,0,0
	h-88v4.6h171.6c11.5,0,20.9-9.3,20.9-20.8c0,0,0-0.1,0-0.1l0,0C1900,1197.3,1890.7,1187.9,1879.1,1187.9
	C1879.1,1187.9,1879.1,1187.9,1879.1,1187.9z"/>
<path class="st4" d="M1819.4,1208.8L1819.4,1208.8c0-11.5-9.3-20.9-20.9-20.9h-91.1v5h88c8.9,0,16.1,7.2,16.1,16.1c0,0,0,0,0,0l0,0
	c0,8.9-7.2,16.1-16.1,16.1c0,0,0,0,0,0h-88v4.6h91.1C1810.1,1229.7,1819.4,1220.4,1819.4,1208.8
	C1819.5,1208.8,1819.4,1208.8,1819.4,1208.8z"/>
<path class="st0" d="M1795.6,1192.9h-88v0.1c8.1,0.9,14.2,7.8,14.2,16l0,0c0,8.2-6.1,15.1-14.2,16v0.1h88c8.9,0,16.1-7.2,16.1-16.1
	l0,0C1811.7,1200.2,1804.5,1192.9,1795.6,1192.9C1795.6,1192.9,1795.6,1192.9,1795.6,1192.9z"/>
<path class="st2" d="M1811.6,1208.8c0-8.9-7.2-16.1-16.1-16.1h-88v0.1c4,0.5,7.7,2.4,10.4,5.5c17.6-1.4,70.1-3,75.7,26.5h2
	C1804.4,1224.8,1811.6,1217.7,1811.6,1208.8z"/>
<path class="st3" d="M1735.3,1229.7h179.8v5.7h-92.3c-9.3,0-16.8,8.2-16.8,18.4l0,0c0,10.2,7.5,18.4,16.8,18.4h92.3v5.3h-179.8
	c-12.1,0-21.9-10.7-21.9-23.9l0,0C1713.4,1240.4,1723.2,1229.7,1735.3,1229.7z"/>
<path class="st4" d="M1797.8,1253.6L1797.8,1253.6c0-13.2,9.8-23.9,21.9-23.9h95.4v5.7h-92.3c-9.3,0-16.8,8.2-16.8,18.4l0,0
	c0,10.2,7.5,18.4,16.8,18.4h92.3v5.3h-95.4C1807.6,1277.5,1797.8,1266.8,1797.8,1253.6z"/>
<path class="st0" d="M1822.9,1235.3h92.3v0.1c-8.4,1.1-14.9,8.8-14.9,18.3l0,0c0,9.5,6.5,17.3,14.9,18.3v0.1h-92.3
	c-9.3,0-16.8-8.3-16.8-18.4l0,0C1806.1,1243.6,1813.6,1235.3,1822.9,1235.3z"/>
<path class="st2" d="M1806.1,1253.6c0-10.2,7.5-18.4,16.8-18.4h92.3v0.1c-4.3,0.6-8.2,2.9-10.9,6.3c-18.5-1.6-73.5-3.5-79.3,30.4
	h-2.1C1813.6,1272,1806.1,1263.8,1806.1,1253.6z"/>
<path class="st3" d="M2957.2,656.1h-89c-2.2,0-3.9-1.7-3.9-3.9v-89c0-2.2,1.7-3.9,3.9-3.9h89c2.2,0,3.9,1.7,3.9,3.9v89
	C2961.1,654.3,2959.3,656.1,2957.2,656.1z M2872.1,648.3h81.2v-81.2h-81.2L2872.1,648.3z"/>
<path class="st3" d="M2912.7,635.3L2912.7,635.3c-1.5,0-2.7-0.8-3.4-2c-0.1-0.2-12.2-21.9-27.6-35.5c-1.7-1.4-1.9-3.8-0.6-5.5
	s3.8-1.9,5.5-0.6c0.1,0.1,0.2,0.1,0.2,0.2c11.5,10.2,21.1,24.2,25.9,31.9c29.3-47.8,50.9-75.1,51.1-75.4c1.3-1.7,3.8-2,5.5-0.6
	c1.7,1.3,2,3.8,0.6,5.5c-0.2,0.3-23.2,29.4-53.9,80.2C2915.3,634.6,2914.1,635.3,2912.7,635.3z"/>
<path class="st3" d="M2957.2,510.5h-89c-2.2,0-3.9-1.7-3.9-3.9v-89c0-2.2,1.7-3.9,3.9-3.9h89c2.2,0,3.9,1.7,3.9,3.9v89
	C2961.1,508.8,2959.3,510.5,2957.2,510.5z M2872.1,502.7h81.2v-81.2h-81.2L2872.1,502.7z"/>
<path class="st3" d="M2912.7,489.7L2912.7,489.7c-1.5,0-2.7-0.8-3.4-2c-0.1-0.2-12.2-21.9-27.6-35.5c-1.6-1.4-1.8-3.9-0.3-5.5
	c1.4-1.6,3.9-1.8,5.5-0.3l0,0c11.5,10.2,21.1,24.2,25.9,31.9c29.3-47.8,50.9-75.1,51.1-75.4c1.3-1.7,3.8-2,5.5-0.6
	c1.7,1.3,2,3.8,0.6,5.5l0,0c-0.2,0.3-23.2,29.4-53.9,80.1C2915.3,489,2914.1,489.7,2912.7,489.7z"/>
<polygon class="st0" points="2790.7,655.6 2617.1,655.6 2617.1,969.2 2839.4,969.2 2839.4,698.7 "/>
<path class="st12" d="M2853.1,700.9h-62.4c-1.1,0-2.1-0.9-2.1-2.1c0,0,0,0,0,0v-43.2c0-1.2,0.9-2.1,2.1-2.1c1.2,0,2.1,0.9,2.1,2.1
	c0,0,0,0,0,0v41.2h60.4c1.2,0,2.1,0.9,2.1,2.1C2855.2,700,2854.3,700.9,2853.1,700.9C2853.1,700.9,2853.1,700.9,2853.1,700.9z"/>
<path class="st3" d="M2771.8,698.4H2679c-1.2,0.1-2.2-0.8-2.2-2c-0.1-1.2,0.8-2.2,2-2.2c0.1,0,0.2,0,0.3,0h92.7c1.2,0.1,2,1.1,2,2.2
	C2773.6,697.5,2772.8,698.3,2771.8,698.4L2771.8,698.4z"/>
<path class="st3" d="M2821.9,738.8h-187.3c-1.2-0.1-2-1.1-2-2.2c0.1-1,0.9-1.9,2-2h187.3c1.2,0.1,2,1.1,2,2.2
	C2823.8,737.9,2822.9,738.8,2821.9,738.8z"/>
<path class="st3" d="M2821.9,752.9h-187.3c-1.2-0.1-2-1.1-2-2.2c0.1-1,0.9-1.9,2-2h187.3c1.2,0.1,2,1.1,2,2.2
	C2823.8,752,2822.9,752.9,2821.9,752.9z"/>
<path class="st3" d="M2821.9,773.1h-187.3c-1.2,0-2.1-0.9-2.1-2.1c0-1.2,0.9-2.1,2.1-2.1h187.3c1.2,0,2.1,0.9,2.1,2.1
	C2824,772.1,2823.1,773.1,2821.9,773.1C2821.9,773.1,2821.9,773.1,2821.9,773.1z"/>
<path class="st3" d="M2821.9,787.2h-187.3c-1.2,0-2.1-0.9-2.1-2.1c0-1.2,0.9-2.1,2.1-2.1h187.3c1.2,0,2.1,0.9,2.1,2.1
	C2824,786.2,2823.1,787.2,2821.9,787.2C2821.9,787.2,2821.9,787.2,2821.9,787.2z"/>
<path class="st3" d="M2821.9,801.3h-187.3c-1.2,0-2.1-0.9-2.1-2.1c0-1.2,0.9-2.1,2.1-2.1h187.3c1.2,0,2.1,0.9,2.1,2.1
	C2824,800.3,2823.1,801.3,2821.9,801.3C2821.9,801.3,2821.9,801.3,2821.9,801.3z"/>
<path class="st3" d="M2821.9,815.4h-187.3c-1.2-0.1-2-1.1-2-2.2c0.1-1,0.9-1.9,2-2h187.3c1.2,0.1,2,1.1,2,2.2
	C2823.8,814.5,2822.9,815.3,2821.9,815.4z"/>
<path class="st3" d="M2821.9,868.9h-187.3c-1.2,0-2.1-0.9-2.1-2.1c0-1.2,0.9-2.1,2.1-2.1h187.3c1.2,0,2.1,0.9,2.1,2.1
	C2824,867.9,2823.1,868.9,2821.9,868.9C2821.9,868.9,2821.9,868.9,2821.9,868.9z"/>
<path class="st3" d="M2821.9,883h-187.3c-1.2-0.1-2-1.1-2-2.2c0.1-1,0.9-1.9,2-2h187.3c1.2,0.1,2,1.1,2,2.2
	C2823.8,882.1,2822.9,882.9,2821.9,883z"/>
<path class="st3" d="M2821.9,897.1h-187.3c-1.2-0.1-2-1.1-2-2.2c0.1-1,0.9-1.9,2-2h187.3c1.2,0.1,2,1.1,2,2.2
	C2823.8,896.2,2822.9,897,2821.9,897.1z"/>
<path class="st3" d="M2821.9,911.2h-187.3c-1.2-0.1-2-1.1-2-2.2c0.1-1,0.9-1.9,2-2h187.3c1.2,0.1,2,1.1,2,2.2
	C2823.8,910.3,2822.9,911.1,2821.9,911.2z"/>
<path class="st0" d="M1889.2,1013.3c-4.8-7.3-14.8-11.8-15.5-20.6c-0.3-3.2,0.8-6.8-0.9-9.6c-1.8-3-6.1-3.5-9.6-3.2
	c-3.9,0.4-8,1.6-10.4,4.7c-3,3.9-2.3,9.4-3.3,14.3c-2.3,11.7-13.8,18.9-24.3,24.5c-5.5,2.9-11.2,6-14.5,11.2
	c-5.6,8.8-2.5,20.3-3,30.8c-0.4,8.4-3.2,16.4-8,23.2c-2.8,4-6.3,7.5-9,11.6s-4.4,9.2-3.1,13.9c0.8,3.1,3.9,7.1,7.5,7.2
	c4.7,0.2,4.4-3.4,5.6-6.7c2.6-7.2,8.4-11,16-12c6.4-0.9,12.9-0.2,19.2-1.1s13-4.1,15.4-10c2.3-5.6,0.2-12,1.1-18
	c1.3-8.3,8-14.5,14.3-20l16.3-14.1c2.6-2.1,4.9-4.5,6.8-7.2C1893.1,1026.4,1892.9,1019,1889.2,1013.3z M1873,1032.8
	c-5.8,6.4-14.9,7-22.5,10.1c-5.9,2.4-11,5.3-17.6,5c-4.3-0.2-9.5-1.5-9.7-6.6c-0.2-8.8,11.8-10.4,18-10.7c3.9-0.2,7.9-0.5,11.3-2.2
	c2.6-1.3,4.7-3.3,6.2-5.8c1-1.7,1.7-3.6,3.1-5c0.9-0.9,2.1-1.6,3.3-1.9c3.8-1,7.8,0.7,9.8,4
	C1877.6,1023.7,1876.2,1029.2,1873,1032.8z"/>
<rect x="1767.6" y="1115.1" class="st6" width="60.3" height="72.8"/>
<path class="st6" d="M1846.7,1170.3h-23.3c-2.3,0.1-4.3-1.7-4.4-4c-0.1-2.3,1.7-4.3,4-4.4c0.1,0,0.3,0,0.4,0h19.2v-27.5h-16.9
	c-2.3,0.1-4.3-1.7-4.4-4c-0.1-2.3,1.7-4.3,4-4.4c0.1,0,0.3,0,0.4,0h21.1c2.3,0,4.2,1.9,4.2,4.2c0,0,0,0,0,0v35.9
	C1850.9,1168.4,1849,1170.3,1846.7,1170.3z"/>
</svg>
