<svg id="圖層_2_拷貝_7" data-name="圖層 2 拷貝 7" xmlns="http://www.w3.org/2000/svg" xmlns:xlink="http://www.w3.org/1999/xlink" viewBox="0 0 160.42 234.95"><defs><style>.cls-1{fill:#1f1a15;}.cls-2{fill:#450000;}.cls-3{fill:url(#linear-gradient);}.cls-4{fill:#fcd658;}.cls-5{fill:#f2ad51;}.cls-6{fill:#0e1b29;}.cls-7{fill:#fca5a5;}.cls-8{fill:#ffda88;}.cls-9{fill:#464a7f;}.cls-10{fill:#35385f;}.cls-11{fill:#6b6e99;}.cls-12{fill:#fcacac;}.cls-13{fill:#241145;}.cls-14{fill:#ed1e79;}.cls-15{fill:#fc8b8b;}.cls-16{fill:#1b3753;}.cls-17{fill:#fc7c7c;}</style><linearGradient id="linear-gradient" x1="791.22" y1="1657.39" x2="634.02" y2="1685.68" gradientTransform="matrix(-1, 0, 0, 1, 976.35, 0)" gradientUnits="userSpaceOnUse"><stop offset="0" stop-color="#f57939"/><stop offset="1" stop-color="#fffb4d"/></linearGradient></defs><title>people</title><polygon class="cls-1" points="95.42 224.85 99.43 224.85 115.38 156.16 109.57 155.86 95.42 224.85"/><polygon class="cls-1" points="160.42 226.09 156.41 226.09 140.46 157.4 146.27 157.09 160.42 226.09"/><polygon class="cls-1" points="53.21 218.68 49.21 218.68 33.26 149.99 39.06 149.68 53.21 218.68"/><polygon class="cls-1" points="0 223.34 4.01 223.34 19.96 154.65 14.15 154.34 0 223.34"/><path class="cls-2" d="M188.28,1646v50.53c0,4,3.8,7.22,8.5,7.22H327.25c4.7,0,8.5-3.23,8.5-7.22V1646c0-4-3.8-7.22-8.5-7.22H196.78C192.08,1638.74,188.28,1642,188.28,1646Z" transform="translate(-185.31 -1543)"/><path class="cls-3" d="M196.78,1638.74c4.69,0,8.49,3.23,8.49,7.22v31.58c0,4,3.81,7.22,8.5,7.22h51.67c4.51,0,8.2-3,8.48-6.76h0c0-43.91,0-28.76,0-32,0-4,3.81-7.22,8.5-7.22h44.82c4.7,0,8.5,3.23,8.5,7.22v50.53c0,4-3.8,7.22-8.5,7.22H196.78c-4.7,0-8.5-3.23-8.5-7.22V1646C188.28,1642,192.08,1638.74,196.78,1638.74Z" transform="translate(-185.31 -1543)"/><path class="cls-4" d="M273.93,1646.32h0Z" transform="translate(-185.31 -1543)"/><path class="cls-4" d="M273.93,1646.46Z" transform="translate(-185.31 -1543)"/><path class="cls-4" d="M273.92,1678c0-23,0-29.83,0-31.54h0v-.14h0v-.11h0V1646h0V1646c0-4,3.81-7.22,8.5-7.22h44.82c4.7,0,8.5,3.23,8.5,7.22v50.53c0,4-3.8,7.22-8.5,7.22H265.88l-.44-19C270,1684.76,273.64,1681.78,273.92,1678Z" transform="translate(-185.31 -1543)"/><path class="cls-5" d="M301.62,1703.71h25.63c4.7,0,8.5-3.23,8.5-7.22V1646c0-4-3.8-7.22-8.5-7.22H301.62c-4.69,0-8.5,3.23-8.5,7.22v50.53C293.12,1700.48,296.93,1703.71,301.62,1703.71Z" transform="translate(-185.31 -1543)"/><path class="cls-6" d="M262.27,1543.91s-13.74-2.35-18.54,7.14-4.36,31,2.19,36.51,5.45,19.79,11.18,24,20.33,6.1,20.33-3.79c0,0-7.12,1.2-8.92-5,0,0,10.21,4.79,15.2-2.52s-5.73-8-5.73-8,4.21,2.07-2.07,1-2.18-2.66-2.18-8,3.88-1.56,2.77-11.32S267,1543.57,262.27,1543.91Z" transform="translate(-185.31 -1543)"/><path class="cls-7" d="M229.1,1753.39l-1.33,9.3s-2.48,7-2.48,8.06c0,.69,1.17,6.23,4.27,7.17,1.59.48,8.11-6.63,9-9.85,1-3.76-1.47-15.51-1.47-15.51Z" transform="translate(-185.31 -1543)"/><path class="cls-7" d="M250.51,1751.74s-1.77,13.64-1.77,15.71-.28,5,.88,6.2,11.64-2.28,11.64-6-2.28-15.91-2.28-15.91Z" transform="translate(-185.31 -1543)"/><path class="cls-8" d="M273.12,1629.75c0-9.32-.38-39.62-.38-39.62s-5.51-3.73-16.54-3.73c-3.54,0-6.8-.6-10.33,0a65.26,65.26,0,0,0-14.22,4.54s2.28,28.59-1.29,48.1a5.63,5.63,0,0,0,5.57,6.61h34.84a3.81,3.81,0,0,0,3.75-4.43A85.53,85.53,0,0,1,273.12,1629.75Z" transform="translate(-185.31 -1543)"/><path class="cls-9" d="M233.88,1645.09c-5.65,4.38-6.85,5.88-8.46,7.86-12.55,15.4-8.94,36.31-3.23,35.52s17.49-2.82,26.61-.92,29.66,1.33,31.56-6.09c1.27-4.93-5.48-22.12-9.13-35.77Z" transform="translate(-185.31 -1543)"/><path class="cls-10" d="M253,1664.35l-4.27,6.7c-2.1,4.81-.88,16.32-.88,16.32l-18.76-.95-.89-17.68Z" transform="translate(-185.31 -1543)"/><path class="cls-11" d="M249.75,1670.63s10.65-1.14,14.64,2.85-3.61,58.37-2.66,61.41,5.52,2.66,2.85,5.32-3.32,4.47-2.09,5.71,1.71,3,.57,4.18-1.52,4.18-1.52,4.18H248.8s-1-7.79-1-9.13-1.52-5.13-1.52-5.13,4.75-2.47,2.47-4.75,0-5.71,0-10.65S241.77,1671.58,249.75,1670.63Z" transform="translate(-185.31 -1543)"/><path class="cls-11" d="M217.49,1670.48c3.69-3.69,9.64-4.15,15.53,0s3.81,14.41,3.81,23.72-.61,32.32.36,35.17,4,5.71,2.87,8.75-1.71,2.41.25,4.37.89,3.43.89,5.52-.95,8.55-.95,8.55H228.08s-.57-11.6-3.61-16.16-.76-14.45-.76-16-3.81-3.42-3.81-10.08S215.49,1672.48,217.49,1670.48Z" transform="translate(-185.31 -1543)"/><path class="cls-12" d="M232.23,1591a85,85,0,0,0-5.2,12.34c-3,8.55,2.07,42.46,2.07,48.16s7.16,12.87,7.16,12.87l6.08-6.84-4-24.72Z" transform="translate(-185.31 -1543)"/><path class="cls-12" d="M272.74,1590.13s8.77,2.17,11.44,14.33,4.85,40.69,4,44.11-22.89,14-22.89,14l-1.87-3.74s16.73-14.45,16.73-16.54S273,1614,273,1614Z" transform="translate(-185.31 -1543)"/><polygon class="cls-13" points="19.96 90.56 24.9 125.64 86.5 123.45 85.28 88.28 19.96 90.56"/><path class="cls-14" d="M238.2,1769c-5.75,3.64-10,3.26-12.91,1.87.08,1,1.27,6.17,4.27,7.08C231,1778.36,236.59,1772.45,238.2,1769Z" transform="translate(-185.31 -1543)"/><path class="cls-14" d="M261.26,1767.65a34.32,34.32,0,0,0-.29-3.51c-3.31,3-7.74,4.94-12,.57-.13,1.29-.21,2.29-.21,2.74,0,2.06-.28,5,.88,6.2S261.26,1771.37,261.26,1767.65Z" transform="translate(-185.31 -1543)"/><path class="cls-12" d="M262.45,1572.31s-.48,1-1.21,2.69c-2.51,5.71-.91,14.46-.79,16,.26,3-1.38,9.3-1.38,9.3s-11.94-8.35-12.62-13.84l6.48-19.84Z" transform="translate(-185.31 -1543)"/><path class="cls-15" d="M252.93,1566.6l9.52,5.71s-.48,1-1.21,2.69c-3.35-.92-8.46-2.61-9.57-4.54Z" transform="translate(-185.31 -1543)"/><path class="cls-6" d="M255.23,1550.41l14.37,7.93a3,3,0,0,0,3-3.25c0-3.32-3.66-6.57-7.38-8.47a34.76,34.76,0,0,0-8.41-2.72Z" transform="translate(-185.31 -1543)"/><path class="cls-12" d="M260.45,1546.82s5.56,1,7.05,3.59,1.9,8.95,3.39,10.44a6.81,6.81,0,0,0,2.79,1.82s.4.69-1.1,1.44-.36,1.56.57,1.56.15,1.76-.57,2a1,1,0,0,1,.75,1.15c-.17.88-.61,1-.61,1a5.61,5.61,0,0,0,.43,2.24c.47,1.08-.68,4.3-7.95,2.88,0,0-10.82-2.54-11.46-5.59s-5.45-14.14-1.35-18.24S260.45,1546.82,260.45,1546.82Z" transform="translate(-185.31 -1543)"/><path class="cls-16" d="M255.44,1543.73s1.35-1.76,8.13.17,8.74,9.6,8.74,9.6-4.37-3-7.11-3-9-1-10-2S255.44,1543.73,255.44,1543.73Z" transform="translate(-185.31 -1543)"/><path class="cls-16" d="M256.84,1543.12c1,0,6.42,6.82,4.8,11.9s-5.49,2.82-7.93,4.17.47,7.63,0,10.17-7.29,17.08-7.29,17.08-5.76-30.74-2.26-36.43S256.84,1543.12,256.84,1543.12Z" transform="translate(-185.31 -1543)"/><path class="cls-15" d="M263.53,1564.33c0,.75,1.27,1.37,2.84,1.37s2.85-.62,2.85-1.37-1.28-1.38-2.85-1.38S263.53,1563.57,263.53,1564.33Z" transform="translate(-185.31 -1543)"/><path class="cls-16" d="M270.37,1558.34s-.94,1.88-4.74,1.79Z" transform="translate(-185.31 -1543)"/><path class="cls-16" d="M269.12,1557a7.14,7.14,0,0,0-2.67-.11c-1.09.26-2,.86-1.93,1.19a5.35,5.35,0,0,1,2.06-.85c1-.1,1.55.4,1.93.31A1.12,1.12,0,0,0,269.12,1557Z" transform="translate(-185.31 -1543)"/><path class="cls-16" d="M253.43,1564.28s5.27,12.21-5.32,25.85-24.94,8.13-26.88,2.6,4.83-7.41,4.83-7.41-1.29,6.25,2.15,6,4.62-1.1,3.24-7.83,3.62-4,6.36-8.44,0-7.76,0-13,6.38-12,6.38-12Z" transform="translate(-185.31 -1543)"/><path class="cls-15" d="M254.5,1559.8s-1.82-4.27-2.66-3.35-1.28,7.22,1.72,7.83S254.5,1559.8,254.5,1559.8Z" transform="translate(-185.31 -1543)"/><path class="cls-17" d="M254.31,1560.32s-1-2.33-1.56-1.78,0,4.22.78,4.22S254.49,1561.5,254.31,1560.32Z" transform="translate(-185.31 -1543)"/><path class="cls-16" d="M269.36,1560.28c0,.43-.2.78-.45.78s-.45-.35-.45-.78.2-.8.45-.8S269.36,1559.84,269.36,1560.28Z" transform="translate(-185.31 -1543)"/></svg>