<svg id="圖層_2_拷貝_3" data-name="圖層 2 拷貝 3" xmlns="http://www.w3.org/2000/svg" viewBox="0 0 230.84 157.57"><defs><style>.cls-1{fill:#506394;}.cls-2{fill:#004d54;}.cls-3{fill:#91e5d3;}.cls-4{fill:#509294;}.cls-5{fill:#fff;}.cls-6{fill:#121841;}.cls-7{fill:#fcd658;}.cls-8{fill:#e4edff;}.cls-9{fill:#698bfd;}</style></defs><title>website1</title><rect class="cls-1" width="230.84" height="157.57" rx="3.48"/><rect class="cls-2" width="230.84" height="15.1" rx="3.48"/><rect class="cls-3" x="21.24" y="30.29" width="57.19" height="89.15"/><rect class="cls-4" x="94.44" y="30.29" width="121.57" height="5.01"/><rect class="cls-4" x="94.44" y="40.89" width="121.57" height="5.8"/><rect class="cls-5" x="8.64" y="4.23" width="153.47" height="8.26"/><path class="cls-5" d="M517.31,1487a1.27,1.27,0,1,1-1.27-1.27A1.27,1.27,0,0,1,517.31,1487Z" transform="translate(-311.07 -1475.77)"/><path class="cls-5" d="M520.39,1487a1.27,1.27,0,1,1-1.27-1.27A1.27,1.27,0,0,1,520.39,1487Z" transform="translate(-311.07 -1475.77)"/><path class="cls-5" d="M523.47,1487a1.27,1.27,0,1,1-1.27-1.27A1.27,1.27,0,0,1,523.47,1487Z" transform="translate(-311.07 -1475.77)"/><path class="cls-6" d="M471.15,1486.77l-1.22-2.11a2.2,2.2,0,0,0,.82-1.73,2.08,2.08,0,1,0-2.07,2.18,2,2,0,0,0,.8-.17l.86,2.26,0,.07a.44.44,0,0,0,.63.16A.49.49,0,0,0,471.15,1486.77Zm-4-3.84a1.58,1.58,0,1,1,1.58,1.66A1.63,1.63,0,0,1,467.1,1482.93Z" transform="translate(-311.07 -1475.77)"/><rect class="cls-7" x="168.41" y="4.23" width="12.97" height="7.83"/><rect class="cls-8" x="104.31" y="55.09" width="106.81" height="95.64"/><rect class="cls-5" x="115.42" y="70.31" width="42.3" height="40.43"/><rect class="cls-5" x="167.02" y="117.14" width="42.3" height="33.6"/><rect class="cls-7" x="133.02" y="59.88" width="51.69" height="4.35"/><rect class="cls-9" x="165.15" y="70.31" width="44.17" height="2.17"/><rect class="cls-9" x="165.15" y="74.08" width="44.17" height="2.17"/><rect class="cls-9" x="165.15" y="77.84" width="44.17" height="2.17"/><rect class="cls-9" x="165.15" y="81.61" width="44.17" height="2.17"/><rect class="cls-9" x="165.15" y="85.38" width="44.17" height="2.17"/><rect class="cls-9" x="165.15" y="89.15" width="44.17" height="2.17"/><rect class="cls-9" x="165.15" y="92.92" width="44.17" height="2.17"/><rect class="cls-9" x="165.15" y="96.68" width="44.17" height="2.17"/><rect class="cls-9" x="165.15" y="100.45" width="44.17" height="2.17"/><rect class="cls-9" x="165.15" y="104.22" width="44.17" height="2.17"/><rect class="cls-9" x="165.15" y="107.99" width="44.17" height="2.17"/></svg>