<svg id="圖層_2_拷貝_4" data-name="圖層 2 拷貝 4" xmlns="http://www.w3.org/2000/svg" viewBox="0 0 230.84 157.57"><defs><style>.cls-1{fill:#d5dffe;}.cls-2{fill:#004d54;}.cls-3{fill:#fff;}.cls-4{fill:#698bfd;}.cls-5{fill:#121841;}.cls-6{fill:#fcd658;}.cls-7{fill:#e4edff;}</style></defs><title>website2</title><rect class="cls-1" width="230.84" height="157.57" rx="3.48"/><rect class="cls-2" width="230.84" height="15.1" rx="3.48"/><rect class="cls-3" x="21.24" y="30.29" width="57.19" height="89.15"/><rect class="cls-4" x="94.44" y="30.29" width="121.57" height="5.01"/><rect class="cls-4" x="94.44" y="40.89" width="121.57" height="5.8"/><rect class="cls-3" x="8.64" y="4.23" width="153.47" height="8.26"/><path class="cls-3" d="M590.05,1591.87a1.27,1.27,0,1,1-1.27-1.27A1.27,1.27,0,0,1,590.05,1591.87Z" transform="translate(-383.82 -1580.66)"/><path class="cls-3" d="M593.13,1591.87a1.27,1.27,0,1,1-1.27-1.27A1.27,1.27,0,0,1,593.13,1591.87Z" transform="translate(-383.82 -1580.66)"/><path class="cls-3" d="M596.21,1591.87a1.27,1.27,0,1,1-1.27-1.27A1.27,1.27,0,0,1,596.21,1591.87Z" transform="translate(-383.82 -1580.66)"/><path class="cls-5" d="M543.9,1591.66l-1.22-2.11a2.21,2.21,0,0,0,.81-1.73,2.07,2.07,0,1,0-2.07,2.19,1.94,1.94,0,0,0,.8-.17l.86,2.25a.43.43,0,0,0,0,.07.44.44,0,0,0,.63.16A.5.5,0,0,0,543.9,1591.66Zm-4-3.84a1.57,1.57,0,1,1,1.57,1.66A1.62,1.62,0,0,1,539.85,1587.82Z" transform="translate(-383.82 -1580.66)"/><rect class="cls-6" x="168.41" y="4.23" width="12.97" height="7.83"/><rect class="cls-7" x="104.31" y="55.09" width="106.81" height="95.64"/><rect class="cls-3" x="115.42" y="70.31" width="42.3" height="40.43"/><rect class="cls-3" x="167.02" y="117.14" width="42.3" height="33.6"/><rect class="cls-6" x="133.02" y="59.88" width="51.69" height="4.35"/><rect class="cls-4" x="165.14" y="70.31" width="44.17" height="2.17"/><rect class="cls-4" x="165.14" y="74.08" width="44.17" height="2.17"/><rect class="cls-4" x="165.14" y="77.84" width="44.17" height="2.17"/><rect class="cls-4" x="165.14" y="81.61" width="44.17" height="2.17"/><rect class="cls-4" x="165.14" y="85.38" width="44.17" height="2.17"/><rect class="cls-4" x="165.14" y="89.15" width="44.17" height="2.17"/><rect class="cls-4" x="165.14" y="92.92" width="44.17" height="2.17"/><rect class="cls-4" x="165.14" y="96.68" width="44.17" height="2.17"/><rect class="cls-4" x="165.14" y="100.45" width="44.17" height="2.17"/><rect class="cls-4" x="165.14" y="104.22" width="44.17" height="2.17"/><rect class="cls-4" x="165.14" y="107.99" width="44.17" height="2.17"/></svg>